<?xml version="1.0" standalone="no"?>
<!DOCTYPE svg PUBLIC "-//W3C//DTD SVG 20010904//EN"
 "http://www.w3.org/TR/2001/REC-SVG-20010904/DTD/svg10.dtd">
<svg version="1.0" xmlns="http://www.w3.org/2000/svg"
 width="233.000000pt" height="233.000000pt" viewBox="0 0 233.000000 233.000000"
 preserveAspectRatio="xMidYMid meet">
<metadata>
Created by potrace 1.11, written by Peter Selinger 2001-2013
</metadata>
<g transform="translate(0.000000,233.000000) scale(0.100000,-0.100000)"
fill="#000000" stroke="none">
<path d="M585 2174 c-147 -48 -178 -68 -173 -112 3 -26 13 -34 63 -49 25 -7
30 -14 30 -40 0 -21 9 -42 28 -61 29 -30 29 -31 36 -199 12 -262 6 -1261 -8
-1303 -17 -55 -32 -70 -91 -89 l-55 -18 -3 -51 -3 -52 51 0 c45 0 50 -2 43
-18 -17 -35 -3 -72 32 -89 11 -5 56 -8 100 -6 80 4 121 4 293 1 87 -2 93 -1
109 22 19 27 24 58 11 66 -4 3 -6 8 -4 12 2 4 -14 16 -35 26 -27 13 -41 28
-45 45 -10 47 -13 51 -38 51 -19 0 -27 7 -33 28 -4 15 -8 137 -8 272 l0 246
28 57 c38 75 115 137 207 163 36 10 160 13 160 3 0 -5 6 -6 13 -3 7 2 29 -6
48 -19 59 -39 64 -68 64 -372 0 -310 -4 -331 -66 -371 -36 -22 -39 -28 -39
-69 l0 -45 50 0 c43 0 50 -2 42 -16 -15 -26 -2 -71 25 -85 25 -13 213 -21 213
-8 0 3 17 4 38 2 155 -16 227 -7 253 31 18 25 -9 74 -52 92 -31 14 -39 23 -39
44 0 33 -17 50 -50 50 -33 0 -46 9 -55 40 -5 14 -9 142 -11 285 -2 257 -4 291
-26 370 -5 22 -11 45 -13 50 -7 29 -30 75 -37 75 -4 0 -8 6 -8 13 0 7 -44 56
-98 108 -104 101 -137 120 -242 134 -98 14 -264 -25 -359 -83 l-48 -30 3 196
c10 485 10 579 2 604 -9 25 -25 37 -56 44 -35 7 -42 15 -42 47 0 38 -15 57
-44 56 -12 0 -84 -21 -161 -45z"/>
</g>
</svg>
